ffmpeg started on 2016-12-08 at 00:30:59
Report written to "Output/x264/results/ffmpeg/sintelslower4500k.log"
Command line:
Tools/ffmpeg/ffmpeg -benchmark -y -i Input/y4m/sintel.y4m -c:v libx264 -preset slower -b:v 4500k -an Output/x264/encoded/sintelslower4500k.mkv
ffmpeg version N-82227-gdb23fde Copyright (c) 2000-2016 the FFmpeg developers
  built with gcc 5.4.0 (Ubuntu 5.4.0-6ubuntu1~16.04.2) 20160609
  configuration: --prefix=/home/jaroslav/ffmpeg_build --pkg-config-flags=--static --extra-cflags=-I/home/jaroslav/ffmpeg_build/include --extra-ldflags=-L/home/jaroslav/ffmpeg_build/lib --bindir=/home/jaroslav/bin --enable-gpl --enable-libass --enable-libfdk-aac --enable-libfreetype --enable-libmp3lame --enable-libopus --enable-libtheora --enable-libvorbis --enable-libvpx --enable-libx264 --enable-libx265 --enable-nvenc --enable-libmfx --enable-libxvid --enable-libgsm --enable-libopencore-amrnb --enable-version3 --enable-nonfree
  libavutil      55. 35.100 / 55. 35.100
  libavcodec     57. 66.101 / 57. 66.101
  libavformat    57. 57.100 / 57. 57.100
  libavdevice    57.  2.100 / 57.  2.100
  libavfilter     6. 66.100 /  6. 66.100
  libswscale      4.  3.100 /  4.  3.100
  libswresample   2.  4.100 /  2.  4.100
  libpostproc    54.  2.100 / 54.  2.100
Input #0, yuv4mpegpipe, from 'Input/y4m/sintel.y4m':
  Duration: 00:00:20.83, start: 0.000000, bitrate: 2057307 kb/s
    Stream #0:0: Video: rawvideo (I420 / 0x30323449), yuv420p(progressive), 4096x1744, SAR 1:1 DAR 256:109, 24 fps, 24 tbr, 24 tbn, 24 tbc
[libx264 @ 0x32061c0] using SAR=1/1
[libx264 @ 0x32061c0] DPB size (8 frames, 223232 mbs) > level limit (6 frames, 184320 mbs)
[libx264 @ 0x32061c0] using cpu capabilities: MMX2 SSE2Fast SSSE3 SSE4.2 AVX FMA3 AVX2 LZCNT BMI2
[libx264 @ 0x32061c0] profile High, level 5.2
[libx264 @ 0x32061c0] 264 - core 148 - H.264/MPEG-4 AVC codec - Copyleft 2003-2016 - http://www.videolan.org/x264.html - options: cabac=1 ref=8 deblock=1:0:0 analyse=0x3:0x133 me=umh subme=9 psy=1 psy_rd=1.00:0.00 mixed_ref=1 me_range=16 chroma_me=1 trellis=2 8x8dct=1 cqm=0 deadzone=21,11 fast_pskip=1 chroma_qp_offset=-2 threads=6 lookahead_threads=1 sliced_threads=0 nr=0 decimate=1 interlaced=0 bluray_compat=0 constrained_intra=0 bframes=3 b_pyramid=2 b_adapt=2 b_bias=0 direct=3 weightb=1 open_gop=0 weightp=2 keyint=250 keyint_min=24 scenecut=40 intra_refresh=0 rc_lookahead=60 rc=abr mbtree=1 bitrate=4500 ratetol=1.0 qcomp=0.60 qpmin=0 qpmax=69 qpstep=4 ip_ratio=1.40 aq=1:1.00
Output #0, matroska, to 'Output/x264/encoded/sintelslower4500k.mkv':
  Metadata:
    encoder         : Lavf57.57.100
    Stream #0:0: Video: h264 (libx264) (H264 / 0x34363248), yuv420p, 4096x1744 [SAR 1:1 DAR 256:109], q=-1--1, 4500 kb/s, 24 fps, 1k tbn, 24 tbc
    Metadata:
      encoder         : Lavc57.66.101 libx264
    Side data:
      cpb: bitrate max/min/avg: 0/0/4500000 buffer size: 0 vbv_delay: -1
Stream mapping:
  Stream #0:0 -> #0:0 (rawvideo (native) -> h264 (libx264))
Press [q] to stop, [?] for help
frame=   10 fps=0.0 q=0.0 size=       0kB time=00:00:00.00 bitrate=N/A speed=   0x    frame=   19 fps= 18 q=0.0 size=       0kB time=00:00:00.00 bitrate=N/A speed=   0x    frame=   28 fps= 18 q=0.0 size=       0kB time=00:00:00.00 bitrate=N/A speed=   0x    frame=   37 fps= 18 q=0.0 size=       0kB time=00:00:00.00 bitrate=N/A speed=   0x    frame=   46 fps= 17 q=0.0 size=       0kB time=00:00:00.00 bitrate=N/A speed=   0x    frame=   47 fps=8.1 q=0.0 size=       0kB time=00:00:00.00 bitrate=N/A speed=   0x    frame=   48 fps=5.3 q=0.0 size=       0kB time=00:00:00.00 bitrate=N/A speed=   0x    frame=   49 fps=4.3 q=0.0 size=       0kB time=00:00:00.00 bitrate=N/A speed=   0x    frame=   58 fps=4.9 q=0.0 size=       0kB time=00:00:00.00 bitrate=N/A speed=   0x    frame=   67 fps=3.5 q=0.0 size=       0kB time=00:00:00.00 bitrate=N/A speed=   0x    frame=   71 fps=3.6 q=31.0 size=       1kB time=-00:00:00.08 bitrate=N/A speed=N/A    frame=   73 fps=3.6 q=40.0 size=       1kB time=00:00:00.00 bitrate=5888.0kbits/s speed=4.91e-05x    frame=   74 fps=3.5 q=35.0 size=       1kB time=00:00:00.04 bitrate= 136.9kbits/s speed=0.00205x    frame=   76 fps=3.5 q=48.0 size=       1kB time=00:00:00.12 bitrate=  46.7kbits/s speed=0.00582x    frame=   77 fps=3.4 q=44.0 size=       1kB time=00:00:00.16 bitrate=  35.0kbits/s speed=0.00741x    frame=   79 fps=3.4 q=50.0 size=       1kB time=00:00:00.25 bitrate=  23.5kbits/s speed=0.0108x    frame=   81 fps=3.4 q=50.0 size=       1kB time=00:00:00.33 bitrate=  17.6kbits/s speed=0.014x    frame=   83 fps=3.4 q=49.0 size=       1kB time=00:00:00.41 bitrate=  14.1kbits/s speed=0.017x    frame=   84 fps=3.3 q=49.0 size=       1kB time=00:00:00.45 bitrate=  12.8kbits/s speed=0.0182x    frame=   86 fps=3.2 q=49.0 size=       1kB time=00:00:00.54 bitrate=  10.8kbits/s speed=0.0205x    frame=   89 fps=3.3 q=49.0 size=       1kB time=00:00:00.66 bitrate=   8.8kbits/s speed=0.0247x    frame=   91 fps=3.3 q=49.0 size=       1kB time=00:00:00.75 bitrate=   7.8kbits/s speed=0.0272x    frame=   92 fps=3.2 q=49.0 size=       1kB time=00:00:00.79 bitrate=   7.4kbits/s speed=0.0277x    frame=   94 fps=3.2 q=49.0 size=       1kB time=00:00:00.87 bitrate=   6.7kbits/s speed=0.0298x    frame=   95 fps=3.2 q=49.0 size=       1kB time=00:00:00.91 bitrate=   6.4kbits/s speed=0.0306x    frame=   98 fps=3.2 q=49.0 size=       1kB time=00:00:01.04 bitrate=   5.6kbits/s speed=0.0341x    frame=   99 fps=3.2 q=49.0 size=       1kB time=00:00:01.08 bitrate=   5.4kbits/s speed=0.0345x    frame=  102 fps=3.1 q=48.0 size=       1kB time=00:00:01.20 bitrate=   4.9kbits/s speed=0.0372x    frame=  104 fps=3.1 q=48.0 size=       1kB time=00:00:01.29 bitrate=   4.6kbits/s speed=0.0391x    frame=  105 fps=3.1 q=48.0 size=       1kB time=00:00:01.33 bitrate=   4.4kbits/s speed=0.0395x    frame=  107 fps=3.1 q=48.0 size=       1kB time=00:00:01.41 bitrate=   4.2kbits/s speed=0.0412x    frame=  109 fps=3.1 q=48.0 size=       1kB time=00:00:01.50 bitrate=   3.9kbits/s speed=0.0424x    frame=  111 fps=3.1 q=48.0 size=       1kB time=00:00:01.58 bitrate=   3.7kbits/s speed=0.0437x    frame=  114 fps=3.1 q=48.0 size=       1kB time=00:00:01.70 bitrate=   3.4kbits/s speed=0.0465x    frame=  116 fps=3.1 q=47.0 size=       1kB time=00:00:01.79 bitrate=   3.3kbits/s speed=0.0479x    frame=  117 fps=3.1 q=47.0 size=       1kB time=00:00:01.83 bitrate=   3.2kbits/s speed=0.0483x    frame=  118 fps=3.1 q=47.0 size=       1kB time=00:00:01.87 bitrate=   3.1kbits/s speed=0.0488x    frame=  121 fps=3.1 q=47.0 size=       1kB time=00:00:02.00 bitrate=   2.9kbits/s speed=0.0511x    frame=  122 fps=3.1 q=47.0 size=       1kB time=00:00:02.04 bitrate=   2.9kbits/s speed=0.0515x    frame=  124 fps=3.0 q=47.0 size=       1kB time=00:00:02.12 bitrate=   2.8kbits/s speed=0.0523x    frame=  125 fps=3.0 q=47.0 size=       1kB time=00:00:02.16 bitrate=   2.7kbits/s speed=0.0524x    frame=  127 fps=3.0 q=47.0 size=       1kB time=00:00:02.25 bitrate=   2.6kbits/s speed=0.0532x    frame=  129 fps=3.0 q=47.0 size=       1kB time=00:00:02.33 bitrate=   2.5kbits/s speed=0.0541x    frame=  130 fps=3.0 q=47.0 size=       1kB time=00:00:02.37 bitrate=   2.5kbits/s speed=0.0543x    frame=  132 fps=3.0 q=47.0 size=       1kB time=00:00:02.45 bitrate=   2.4kbits/s speed=0.0553x    frame=  134 fps=3.0 q=47.0 size=       1kB time=00:00:02.54 bitrate=   2.3kbits/s speed=0.0563x    frame=  135 fps=3.0 q=47.0 size=       1kB time=00:00:02.58 bitrate=   2.3kbits/s speed=0.0565x    frame=  137 fps=2.9 q=47.0 size=       1kB time=00:00:02.66 bitrate=   2.2kbits/s speed=0.0561x    frame=  139 fps=2.9 q=47.0 size=       1kB time=00:00:02.75 bitrate=   2.1kbits/s speed=0.0572x    frame=  141 fps=2.9 q=47.0 size=       1kB time=00:00:02.83 bitrate=   2.1kbits/s speed=0.0582x    frame=  143 fps=2.9 q=47.0 size=       1kB time=00:00:02.91 bitrate=   2.0kbits/s speed=0.0582x    frame=  144 fps=2.8 q=47.0 size=       1kB time=00:00:02.95 bitrate=   2.0kbits/s speed=0.0584x    frame=  146 fps=2.9 q=47.0 size=       1kB time=00:00:03.04 bitrate=   1.9kbits/s speed=0.0594x    frame=  147 fps=2.8 q=47.0 size=       1kB time=00:00:03.08 bitrate=   1.9kbits/s speed=0.0595x    frame=  148 fps=2.8 q=47.0 size=       1kB time=00:00:03.12 bitrate=   1.9kbits/s speed=0.0597x    frame=  149 fps=2.8 q=47.0 size=       1kB time=00:00:03.16 bitrate=   1.9kbits/s speed=0.0597x    frame=  151 fps=2.8 q=47.0 size=       1kB time=00:00:03.25 bitrate=   1.8kbits/s speed=0.0603x    frame=  152 fps=2.8 q=47.0 size=       1kB time=00:00:03.29 bitrate=   1.8kbits/s speed=0.0601x    frame=  153 fps=2.8 q=47.0 size=       1kB time=00:00:03.33 bitrate=   1.8kbits/s speed=0.0602x    frame=  155 fps=2.8 q=47.0 size=       1kB time=00:00:03.41 bitrate=   1.7kbits/s speed=0.0608x    frame=  157 fps=2.7 q=47.0 size=       1kB time=00:00:03.50 bitrate=   1.7kbits/s speed=0.0613x    frame=  159 fps=2.7 q=46.0 size=       1kB time=00:00:03.58 bitrate=   1.6kbits/s speed=0.0615x    frame=  161 fps=2.7 q=46.0 size=       1kB time=00:00:03.66 bitrate=   1.6kbits/s speed=0.0618x    frame=  163 fps=2.7 q=46.0 size=       1kB time=00:00:03.75 bitrate=   1.6kbits/s speed=0.0624x    frame=  165 fps=2.7 q=46.0 size=       1kB time=00:00:03.83 bitrate=   1.5kbits/s speed=0.0632x    frame=  167 fps=2.7 q=46.0 size=       1kB time=00:00:03.91 bitrate=   1.5kbits/s speed=0.0629x    frame=  171 fps=2.7 q=46.0 size=       1kB time=00:00:04.08 bitrate=   1.4kbits/s speed=0.0649x    frame=  173 fps=2.7 q=46.0 size=       1kB time=00:00:04.16 bitrate=   1.4kbits/s speed=0.0644x    frame=  177 fps=2.7 q=46.0 size=       1kB time=00:00:04.33 bitrate=   1.4kbits/s speed=0.0663x    frame=  179 fps=2.7 q=46.0 size=       1kB time=00:00:04.41 bitrate=   1.3kbits/s speed=0.0667x    frame=  181 fps=2.7 q=43.0 size=       1kB time=00:00:04.50 bitrate=   1.3kbits/s speed=0.067x    frame=  183 fps=2.7 q=46.0 size=       1kB time=00:00:04.58 bitrate=   1.3kbits/s speed=0.0676x    frame=  185 fps=2.7 q=46.0 size=       1kB time=00:00:04.66 bitrate=   1.3kbits/s speed=0.0683x    frame=  191 fps=2.8 q=46.0 size=    2852kB time=00:00:04.91 bitrate=4751.1kbits/s speed=0.0708x    frame=  194 fps=2.8 q=45.0 size=    2852kB time=00:00:05.04 bitrate=4633.3kbits/s speed=0.0719x    frame=  196 fps=2.8 q=45.0 size=    2852kB time=00:00:05.12 bitrate=4558.3kbits/s speed=0.0725x    frame=  197 fps=2.8 q=46.0 size=    2852kB time=00:00:05.16 bitrate=4521.3kbits/s speed=0.0724x    frame=  199 fps=2.7 q=46.0 size=    2852kB time=00:00:05.25 bitrate=4449.8kbits/s speed=0.0725x    frame=  201 fps=2.7 q=46.0 size=    2852kB time=00:00:05.33 bitrate=4380.6kbits/s speed=0.0728x    frame=  203 fps=2.7 q=46.0 size=    2852kB time=00:00:05.41 bitrate=4312.7kbits/s speed=0.0732x    frame=  205 fps=2.7 q=46.0 size=    2852kB time=00:00:05.50 bitrate=4247.6kbits/s speed=0.0735x    frame=  208 fps=2.8 q=46.0 size=    2852kB time=00:00:05.62 bitrate=4153.2kbits/s speed=0.0745x    frame=  210 fps=2.8 q=46.0 size=    2852kB time=00:00:05.70 bitrate=4092.8kbits/s speed=0.0748x    frame=  212 fps=2.8 q=46.0 size=    2852kB time=00:00:05.79 bitrate=4033.5kbits/s speed=0.0753x    frame=  215 fps=2.8 q=45.0 size=    2852kB time=00:00:05.91 bitrate=3948.3kbits/s speed=0.0762x    frame=  217 fps=2.8 q=45.0 size=    2852kB time=00:00:06.00 bitrate=3893.7kbits/s speed=0.0766x    frame=  219 fps=2.8 q=45.0 size=    2852kB time=00:00:06.08 bitrate=3840.6kbits/s speed=0.077x    frame=  221 fps=2.8 q=45.0 size=    2852kB time=00:00:06.16 bitrate=3788.3kbits/s speed=0.0773x    frame=  222 fps=2.8 q=45.0 size=    2852kB time=00:00:06.20 bitrate=3763.2kbits/s speed=0.0772x    frame=  225 fps=2.8 q=45.0 size=    2852kB time=00:00:06.33 bitrate=3689.0kbits/s speed=0.0783x    frame=  228 fps=2.7 q=45.0 size=    2852kB time=00:00:06.45 bitrate=3617.6kbits/s speed=0.0778x    frame=  231 fps=2.8 q=45.0 size=    2852kB time=00:00:06.58 bitrate=3548.9kbits/s speed=0.0787x    frame=  234 fps=2.7 q=45.0 size=    2852kB time=00:00:06.70 bitrate=3482.8kbits/s speed=0.0788x    frame=  236 fps=2.7 q=45.0 size=    2852kB time=00:00:06.79 bitrate=3439.7kbits/s speed=0.0791x    frame=  239 fps=2.8 q=45.0 size=    2852kB time=00:00:06.91 bitrate=3377.6kbits/s speed=0.0799x    frame=  240 fps=2.7 q=45.0 size=    2852kB time=00:00:06.95 bitrate=3357.7kbits/s speed=0.0796x    frame=  241 fps=2.7 q=45.0 size=    2852kB time=00:00:07.00 bitrate=3337.5kbits/s speed=0.0796x    frame=  243 fps=2.7 q=45.0 size=    2852kB time=00:00:07.08 bitrate=3298.4kbits/s speed=0.0798x    frame=  244 fps=2.7 q=45.0 size=    2852kB time=00:00:07.12 bitrate=3279.0kbits/s speed=0.0798x    frame=  246 fps=2.7 q=45.0 size=    2852kB time=00:00:07.20 bitrate=3241.2kbits/s speed=0.08x    frame=  247 fps=2.7 q=45.0 size=    2852kB time=00:00:07.25 bitrate=3222.4kbits/s speed=0.0798x    frame=  249 fps=2.7 q=42.0 size=    2852kB time=00:00:07.33 bitrate=3186.0kbits/s speed=0.0801x    frame=  251 fps=2.7 q=45.0 size=    2852kB time=00:00:07.41 bitrate=3149.9kbits/s speed=0.0803x    frame=  254 fps=2.7 q=45.0 size=    4263kB time=00:00:07.54 bitrate=4629.3kbits/s speed=0.0812x    frame=  260 fps=2.8 q=45.0 size=    4263kB time=00:00:07.79 bitrate=4480.8kbits/s speed=0.0834x    frame=  262 fps=2.8 q=45.0 size=    4263kB time=00:00:07.87 bitrate=4433.5kbits/s speed=0.0836x    frame=  265 fps=2.8 q=44.0 size=    4263kB time=00:00:08.00 bitrate=4364.3kbits/s speed=0.0844x    frame=  266 fps=2.8 q=44.0 size=    4263kB time=00:00:08.04 bitrate=4341.5kbits/s speed=0.0843x    frame=  268 fps=2.8 q=44.0 size=    4263kB time=00:00:08.12 bitrate=4297.1kbits/s speed=0.0844x    frame=  269 fps=2.8 q=44.0 size=    4263kB time=00:00:08.16 bitrate=4275.0kbits/s speed=0.0843x    frame=  271 fps=2.8 q=44.0 size=    4263kB time=00:00:08.25 bitrate=4232.0kbits/s speed=0.0846x    frame=  272 fps=2.8 q=44.0 size=    4263kB time=00:00:08.29 bitrate=4210.6kbits/s speed=0.0846x    frame=  275 fps=2.8 q=44.0 size=    4263kB time=00:00:08.41 bitrate=4148.1kbits/s speed=0.0852x    frame=  277 fps=2.8 q=44.0 size=    4263kB time=00:00:08.50 bitrate=4107.6kbits/s speed=0.0855x    frame=  279 fps=2.8 q=44.0 size=    4263kB time=00:00:08.58 bitrate=4067.9kbits/s speed=0.0855x    frame=  282 fps=2.8 q=44.0 size=    4263kB time=00:00:08.70 bitrate=4009.5kbits/s speed=0.0862x    frame=  284 fps=2.8 q=44.0 size=    4263kB time=00:00:08.79 bitrate=3971.2kbits/s speed=0.0863x    frame=  287 fps=2.8 q=44.0 size=    4263kB time=00:00:08.91 bitrate=3915.5kbits/s speed=0.087x    frame=  289 fps=2.8 q=44.0 size=    4263kB time=00:00:09.00 bitrate=3879.4kbits/s speed=0.0873x    frame=  291 fps=2.8 q=44.0 size=    4263kB time=00:00:09.08 bitrate=3844.0kbits/s speed=0.0875x    frame=  294 fps=2.8 q=44.0 size=    4263kB time=00:00:09.20 bitrate=3791.8kbits/s speed=0.0882x    frame=  297 fps=2.8 q=44.0 size=    4263kB time=00:00:09.33 bitrate=3741.0kbits/s speed=0.0885x    frame=  299 fps=2.8 q=44.0 size=    4263kB time=00:00:09.41 bitrate=3707.6kbits/s speed=0.0888x    frame=  302 fps=2.8 q=44.0 size=    4263kB time=00:00:09.54 bitrate=3659.1kbits/s speed=0.0895x    frame=  305 fps=2.8 q=43.0 size=    4263kB time=00:00:09.66 bitrate=3611.8kbits/s speed=0.09x    frame=  307 fps=2.8 q=43.0 size=    4263kB time=00:00:09.75 bitrate=3581.0kbits/s speed=0.0903x    frame=  310 fps=2.9 q=43.0 size=    4263kB time=00:00:09.87 bitrate=3535.7kbits/s speed=0.091x    frame=  311 fps=2.8 q=43.0 size=    4263kB time=00:00:09.91 bitrate=3520.7kbits/s speed=0.0908x    frame=  317 fps=2.9 q=43.0 size=    4263kB time=00:00:10.16 bitrate=3434.2kbits/s speed=0.0921x    frame=  320 fps=2.9 q=43.0 size=    4263kB time=00:00:10.29 bitrate=3392.5kbits/s speed=0.0922x    frame=  324 fps=2.9 q=43.0 size=    4263kB time=00:00:10.45 bitrate=3338.6kbits/s speed=0.0932x    frame=  326 fps=2.9 q=43.0 size=    4263kB time=00:00:10.54 bitrate=3312.0kbits/s speed=0.0932x    frame=  332 fps=2.9 q=43.0 size=    4263kB time=00:00:10.79 bitrate=3235.3kbits/s speed=0.0945x    frame=  339 fps=3.0 q=42.0 size=    5550kB time=00:00:11.08 bitrate=4102.3kbits/s speed=0.0966x    frame=  343 fps=3.0 q=42.0 size=    5550kB time=00:00:11.25 bitrate=4041.4kbits/s speed=0.0974x    frame=  346 fps=3.0 q=42.0 size=    5550kB time=00:00:11.37 bitrate=3997.0kbits/s speed=0.0979x    frame=  349 fps=3.0 q=42.0 size=    5550kB time=00:00:11.50 bitrate=3953.5kbits/s speed=0.0985x    frame=  352 fps=3.0 q=42.0 size=    5550kB time=00:00:11.62 bitrate=3911.0kbits/s speed=0.0988x    frame=  355 fps=3.0 q=42.0 size=    5550kB time=00:00:11.75 bitrate=3869.4kbits/s speed=0.0993x    frame=  359 fps=3.0 q=42.0 size=    5550kB time=00:00:11.91 bitrate=3815.2kbits/s speed=0.0999x    frame=  363 fps=3.0 q=42.0 size=    5550kB time=00:00:12.08 bitrate=3762.8kbits/s speed=0.101x    frame=  365 fps=3.0 q=42.0 size=    5550kB time=00:00:12.16 bitrate=3736.8kbits/s speed=0.101x    frame=  370 fps=3.0 q=41.0 size=    5550kB time=00:00:12.37 bitrate=3674.0kbits/s speed=0.102x    frame=  377 fps=3.1 q=41.0 size=    5550kB time=00:00:12.66 bitrate=3589.3kbits/s speed=0.104x    frame=  379 fps=3.1 q=41.0 size=    5550kB time=00:00:12.75 bitrate=3566.0kbits/s speed=0.104x    frame=  384 fps=3.1 q=41.0 size=    5550kB time=00:00:12.95 bitrate=3508.7kbits/s speed=0.105x    frame=  386 fps=3.1 q=40.0 size=    5550kB time=00:00:13.04 bitrate=3486.1kbits/s speed=0.105x    frame=  390 fps=3.1 q=40.0 size=    5550kB time=00:00:13.20 bitrate=3442.3kbits/s speed=0.106x    frame=  393 fps=3.1 q=40.0 size=    5550kB time=00:00:13.33 bitrate=3410.1kbits/s speed=0.106x    frame=  397 fps=3.2 q=40.0 size=    5550kB time=00:00:13.50 bitrate=3367.9kbits/s speed=0.107x    frame=  400 fps=3.2 q=40.0 size=    5550kB time=00:00:13.62 bitrate=3337.0kbits/s speed=0.108x    frame=  404 fps=3.2 q=40.0 size=    5550kB time=00:00:13.79 bitrate=3296.6kbits/s speed=0.108x    frame=  408 fps=3.2 q=40.0 size=    5550kB time=00:00:13.95 bitrate=3257.4kbits/s speed=0.109x    frame=  412 fps=3.2 q=39.0 size=    5550kB time=00:00:14.12 bitrate=3218.9kbits/s speed=0.11x    frame=  415 fps=3.2 q=39.0 size=    5550kB time=00:00:14.25 bitrate=3190.6kbits/s speed=0.11x    frame=  421 fps=3.2 q=39.0 size=    5550kB time=00:00:14.50 bitrate=3135.6kbits/s speed=0.112x    frame=  424 fps=3.2 q=39.0 size=    5550kB time=00:00:14.62 bitrate=3108.8kbits/s speed=0.112x    frame=  428 fps=3.3 q=37.0 size=    5550kB time=00:00:14.79 bitrate=3073.7kbits/s speed=0.112x    frame=  432 fps=3.3 q=38.0 size=    5550kB time=00:00:14.95 bitrate=3039.6kbits/s speed=0.113x    frame=  439 fps=3.3 q=38.0 size=    6751kB time=00:00:15.25 bitrate=3626.4kbits/s speed=0.115x    frame=  441 fps=3.3 q=38.0 size=    6751kB time=00:00:15.33 bitrate=3606.8kbits/s speed=0.115x    frame=  444 fps=3.3 q=38.0 size=    6751kB time=00:00:15.45 bitrate=3577.6kbits/s speed=0.115x    frame=  446 fps=3.3 q=38.0 size=    6751kB time=00:00:15.54 bitrate=3558.3kbits/s speed=0.115x    frame=  448 fps=3.3 q=38.0 size=    6751kB time=00:00:15.62 bitrate=3539.4kbits/s speed=0.115x    frame=  450 fps=3.3 q=38.0 size=    6751kB time=00:00:15.70 bitrate=3520.7kbits/s speed=0.115x    frame=  455 fps=3.3 q=38.0 size=    6751kB time=00:00:15.91 bitrate=3474.4kbits/s speed=0.116x    frame=  457 fps=3.3 q=38.0 size=    6751kB time=00:00:16.00 bitrate=3456.4kbits/s speed=0.116x    frame=  458 fps=3.3 q=38.0 size=    6751kB time=00:00:16.04 bitrate=3447.4kbits/s speed=0.116x    frame=  461 fps=3.3 q=38.0 size=    6751kB time=00:00:16.16 bitrate=3420.7kbits/s speed=0.117x    frame=  464 fps=3.3 q=38.0 size=    6751kB time=00:00:16.29 bitrate=3394.5kbits/s speed=0.116x    frame=  467 fps=3.3 q=38.0 size=    6751kB time=00:00:16.41 bitrate=3368.6kbits/s speed=0.117x    frame=  469 fps=3.3 q=38.0 size=    6751kB time=00:00:16.50 bitrate=3351.7kbits/s speed=0.117x    frame=  471 fps=3.3 q=38.0 size=    6751kB time=00:00:16.58 bitrate=3334.9kbits/s speed=0.116x    frame=  477 fps=3.3 q=38.0 size=    6751kB time=00:00:16.83 bitrate=3285.4kbits/s speed=0.117x    frame=  481 fps=3.3 q=38.0 size=    6751kB time=00:00:17.00 bitrate=3253.1kbits/s speed=0.117x    frame=  483 fps=3.3 q=38.0 size=    6751kB time=00:00:17.08 bitrate=3237.3kbits/s speed=0.118x    frame=  485 fps=3.3 q=38.0 size=    6751kB time=00:00:17.16 bitrate=3221.5kbits/s speed=0.118x    frame=  492 fps=3.4 q=38.0 size=    7870kB time=00:00:17.45 bitrate=3692.7kbits/s speed=0.119x    frame=  494 fps=3.4 q=38.0 size=    7870kB time=00:00:17.54 bitrate=3675.0kbits/s speed=0.119x    frame=  498 fps=3.4 q=38.0 size=    7870kB time=00:00:17.70 bitrate=3640.5kbits/s speed=0.119x    frame=  500 fps=3.1 q=-1.0 Lsize=    9400kB time=00:00:20.70 bitrate=3718.5kbits/s speed=0.127x    
video:9395kB audio:0kB subtitle:0kB other streams:0kB global headers:0kB muxing overhead: 0.049267%
bench: utime=566.008s
bench: maxrss=2148284kB
[libx264 @ 0x32061c0] frame I:6     Avg QP:32.20  size: 84035
[libx264 @ 0x32061c0] frame P:273   Avg QP:38.78  size: 24162
[libx264 @ 0x32061c0] frame B:221   Avg QP:38.06  size: 11402
[libx264 @ 0x32061c0] consecutive B-frames: 35.2% 11.6% 18.0% 35.2%
[libx264 @ 0x32061c0] mb I  I16..4: 26.5% 72.0%  1.5%
[libx264 @ 0x32061c0] mb P  I16..4: 10.6% 34.4%  0.1%  P16..4: 13.2%  0.5%  0.5%  0.0%  0.0%    skip:40.8%
[libx264 @ 0x32061c0] mb B  I16..4:  0.8%  1.2%  0.0%  B16..8: 25.1%  0.9%  0.1%  direct: 0.2%  skip:71.7%  L0:38.9% L1:60.4% BI: 0.7%
[libx264 @ 0x32061c0] final ratefactor: 35.57
[libx264 @ 0x32061c0] 8x8 transform intra:75.6% inter:91.1%
[libx264 @ 0x32061c0] direct mvs  spatial:99.1% temporal:0.9%
[libx264 @ 0x32061c0] coded y,uvDC,uvAC intra: 8.8% 15.6% 0.3% inter: 1.5% 1.4% 0.0%
[libx264 @ 0x32061c0] i16 v,h,dc,p: 22% 32%  7% 39%
[libx264 @ 0x32061c0] i8 v,h,dc,ddl,ddr,vr,hd,vl,hu: 29% 10% 55%  1%  1%  1%  1%  1%  1%
[libx264 @ 0x32061c0] i4 v,h,dc,ddl,ddr,vr,hd,vl,hu: 16% 17% 10%  8% 10%  9% 13%  6% 11%
[libx264 @ 0x32061c0] i8c dc,h,v,p: 92%  6%  2%  0%
[libx264 @ 0x32061c0] Weighted P-Frames: Y:1.1% UV:0.7%
[libx264 @ 0x32061c0] ref P L0: 60.6% 10.2% 13.8%  4.3%  3.2%  2.7%  2.9%  1.8%  0.6%  0.0%
[libx264 @ 0x32061c0] ref B L0: 86.8%  7.0%  3.2%  1.2%  0.9%  0.7%  0.3%
[libx264 @ 0x32061c0] ref B L1: 98.5%  1.5%
[libx264 @ 0x32061c0] kb/s:3694.18
